<svg width="16" height="16" viewBox="0 0 16 16" fill="none" xmlns="http://www.w3.org/2000/svg">
  <g clip-path="url(#clip0_2392_3769)">
    <path fill-rule="evenodd" clip-rule="evenodd" d="M4.09641 0H9.45115L13.9825 4.72993V13.9153C13.9825 15.0657 13.0541 16 11.9037 16H4.09641C2.95188 16 2.01758 15.0657 2.01758 13.9153V2.07883C2.01756 0.934301 2.95188 0 4.09641 0V0Z" fill="#2B61CA"/>
    <path opacity="0.302" fill-rule="evenodd" clip-rule="evenodd" d="M9.44531 0V4.68905H13.9825L9.44531 0Z" fill="white"/>
    <path d="M4.1 11.84C4.07067 11.84 4.04667 11.8307 4.028 11.812C4.00933 11.7933 4 11.7693 4 11.74V9.14C4 9.11067 4.00933 9.08667 4.028 9.068C4.04667 9.04933 4.07067 9.04 4.1 9.04H5.14C5.40133 9.04 5.624 9.08267 5.808 9.168C5.992 9.25067 6.13333 9.37333 6.232 9.536C6.33067 9.696 6.384 9.89467 6.392 10.132C6.39467 10.2493 6.396 10.352 6.396 10.44C6.396 10.528 6.39467 10.6293 6.392 10.744C6.38133 10.992 6.328 11.1973 6.232 11.36C6.13867 11.5227 6.00133 11.644 5.82 11.724C5.64133 11.8013 5.42133 11.84 5.16 11.84H4.1ZM4.716 11.264H5.14C5.25467 11.264 5.34933 11.2467 5.424 11.212C5.50133 11.1747 5.55867 11.1173 5.596 11.04C5.636 10.9627 5.65733 10.8613 5.66 10.736C5.66533 10.6587 5.668 10.5893 5.668 10.528C5.67067 10.4667 5.67067 10.4053 5.668 10.344C5.668 10.2827 5.66533 10.2147 5.66 10.14C5.65467 9.95867 5.60667 9.82667 5.516 9.744C5.428 9.65867 5.296 9.616 5.12 9.616H4.716V11.264Z" fill="white"/>
    <path d="M8.00728 11.88C7.76195 11.88 7.54861 11.84 7.36728 11.76C7.18595 11.68 7.04461 11.56 6.94328 11.4C6.84195 11.2373 6.78595 11.0347 6.77528 10.792C6.77261 10.6773 6.77128 10.5627 6.77128 10.448C6.77128 10.3333 6.77261 10.2173 6.77528 10.1C6.78595 9.86 6.84195 9.65867 6.94328 9.496C7.04728 9.33067 7.18995 9.20667 7.37128 9.124C7.55261 9.04133 7.76461 9 8.00728 9C8.24728 9 8.45795 9.04133 8.63928 9.124C8.82328 9.20667 8.96728 9.33067 9.07128 9.496C9.17528 9.65867 9.23128 9.86 9.23928 10.1C9.24461 10.2173 9.24728 10.3333 9.24728 10.448C9.24728 10.5627 9.24461 10.6773 9.23928 10.792C9.22861 11.0347 9.17261 11.2373 9.07128 11.4C8.96995 11.56 8.82861 11.68 8.64728 11.76C8.46595 11.84 8.25261 11.88 8.00728 11.88ZM8.00728 11.304C8.14861 11.304 8.26328 11.2613 8.35128 11.176C8.44195 11.0907 8.48995 10.9547 8.49528 10.768C8.50061 10.6507 8.50328 10.54 8.50328 10.436C8.50328 10.332 8.50061 10.224 8.49528 10.112C8.48995 9.98667 8.46595 9.88533 8.42328 9.808C8.38328 9.728 8.32728 9.66933 8.25528 9.632C8.18328 9.59467 8.10061 9.576 8.00728 9.576C7.91661 9.576 7.83528 9.59467 7.76328 9.632C7.69128 9.66933 7.63395 9.728 7.59128 9.808C7.54861 9.88533 7.52461 9.98667 7.51928 10.112C7.51661 10.224 7.51528 10.332 7.51528 10.436C7.51528 10.54 7.51661 10.6507 7.51928 10.768C7.52728 10.9547 7.57528 11.0907 7.66328 11.176C7.75128 11.2613 7.86595 11.304 8.00728 11.304Z" fill="white"/>
    <path d="M10.8589 11.88C10.6056 11.88 10.3883 11.8387 10.2069 11.756C10.0283 11.6733 9.88827 11.552 9.78694 11.392C9.68827 11.232 9.6336 11.0333 9.62294 10.796C9.62027 10.6867 9.61894 10.5693 9.61894 10.444C9.61894 10.3187 9.62027 10.1987 9.62294 10.084C9.6336 9.852 9.6896 9.656 9.79094 9.496C9.89227 9.33333 10.0336 9.21067 10.2149 9.128C10.3963 9.04267 10.6109 9 10.8589 9C11.0349 9 11.1976 9.02267 11.3469 9.068C11.4963 9.11067 11.6269 9.17467 11.7389 9.26C11.8509 9.34267 11.9376 9.444 11.9989 9.564C12.0629 9.68133 12.0963 9.81467 12.0989 9.964C12.1016 9.988 12.0936 10.008 12.0749 10.024C12.0589 10.04 12.0389 10.048 12.0149 10.048H11.4749C11.4403 10.048 11.4136 10.0413 11.3949 10.028C11.3763 10.012 11.3603 9.984 11.3469 9.944C11.3096 9.80267 11.2483 9.70667 11.1629 9.656C11.0803 9.60267 10.9776 9.576 10.8549 9.576C10.7083 9.576 10.5923 9.61733 10.5069 9.7C10.4216 9.78 10.3749 9.91467 10.3669 10.104C10.3589 10.3227 10.3589 10.5467 10.3669 10.776C10.3749 10.9653 10.4216 11.1013 10.5069 11.184C10.5923 11.264 10.7083 11.304 10.8549 11.304C10.9776 11.304 11.0816 11.2773 11.1669 11.224C11.2523 11.1707 11.3123 11.0747 11.3469 10.936C11.3576 10.896 11.3723 10.8693 11.3909 10.856C11.4123 10.84 11.4403 10.832 11.4749 10.832H12.0149C12.0389 10.832 12.0589 10.84 12.0749 10.856C12.0936 10.872 12.1016 10.892 12.0989 10.916C12.0963 11.0653 12.0629 11.2 11.9989 11.32C11.9376 11.4373 11.8509 11.5387 11.7389 11.624C11.6269 11.7067 11.4963 11.7707 11.3469 11.816C11.1976 11.8587 11.0349 11.88 10.8589 11.88Z" fill="white"/>
  </g>
  <defs>
    <clipPath id="clip0_2392_3769">
      <rect width="16" height="16" fill="white"/>
    </clipPath>
  </defs>
</svg>
