<svg width="16" height="16" viewBox="0 0 16 16" fill="none" xmlns="http://www.w3.org/2000/svg">
  <g clip-path="url(#clip0_2393_3860)">
    <path fill-rule="evenodd" clip-rule="evenodd" d="M4.09641 0H9.45115L13.9825 4.72993V13.9153C13.9825 15.0657 13.0541 16 11.9037 16H4.09641C2.95188 16 2.01758 15.0657 2.01758 13.9153V2.07883C2.01756 0.934301 2.95188 0 4.09641 0V0Z" fill="#4B28AE"/>
    <path opacity="0.302" fill-rule="evenodd" clip-rule="evenodd" d="M9.44531 0V4.68905H13.9825L9.44531 0Z" fill="white"/>
    <path d="M5.156 11.88C5.004 11.88 4.85867 11.8613 4.72 11.824C4.584 11.784 4.46267 11.7253 4.356 11.648C4.24933 11.5707 4.164 11.4747 4.1 11.36C4.03867 11.2453 4.00533 11.112 4 10.96C4 10.936 4.008 10.916 4.024 10.9C4.04 10.8813 4.06133 10.872 4.088 10.872H4.628C4.66533 10.872 4.69333 10.8813 4.712 10.9C4.73333 10.9187 4.75067 10.9467 4.764 10.984C4.77733 11.0587 4.80267 11.12 4.84 11.168C4.87733 11.2133 4.924 11.248 4.98 11.272C5.03867 11.2933 5.104 11.304 5.176 11.304C5.30933 11.304 5.412 11.2613 5.484 11.176C5.556 11.088 5.592 10.96 5.592 10.792V9.636H4.296C4.26933 9.636 4.24533 9.62667 4.224 9.608C4.20533 9.58933 4.196 9.56533 4.196 9.536V9.14C4.196 9.11067 4.20533 9.08667 4.224 9.068C4.24533 9.04933 4.26933 9.04 4.296 9.04H6.232C6.26133 9.04 6.28533 9.04933 6.304 9.068C6.32533 9.08667 6.336 9.11067 6.336 9.14V10.812C6.336 11.044 6.28533 11.24 6.184 11.4C6.08267 11.5573 5.944 11.6773 5.768 11.76C5.592 11.84 5.388 11.88 5.156 11.88Z" fill="white"/>
    <path d="M6.96769 11.84C6.93835 11.84 6.91435 11.8307 6.89569 11.812C6.87702 11.7933 6.86769 11.7693 6.86769 11.74V9.14C6.86769 9.11067 6.87702 9.08667 6.89569 9.068C6.91435 9.04933 6.93835 9.04 6.96769 9.04H8.08769C8.30902 9.04 8.50102 9.07467 8.66369 9.144C8.82902 9.21067 8.95702 9.312 9.04769 9.448C9.14102 9.584 9.18769 9.756 9.18769 9.964C9.18769 10.1693 9.14102 10.3387 9.04769 10.472C8.95702 10.6053 8.82902 10.704 8.66369 10.768C8.50102 10.832 8.30902 10.864 8.08769 10.864H7.61169V11.74C7.61169 11.7693 7.60102 11.7933 7.57969 11.812C7.56102 11.8307 7.53702 11.84 7.50769 11.84H6.96769ZM7.59969 10.312H8.06769C8.18235 10.312 8.27302 10.2827 8.33969 10.224C8.40902 10.1653 8.44369 10.076 8.44369 9.956C8.44369 9.85467 8.41435 9.76933 8.35569 9.7C8.29702 9.63067 8.20102 9.596 8.06769 9.596H7.59969V10.312Z" fill="white"/>
    <path d="M10.7268 11.88C10.4735 11.88 10.2548 11.8387 10.0708 11.756C9.88948 11.6707 9.74815 11.548 9.64681 11.388C9.54815 11.2253 9.49348 11.028 9.48281 10.796C9.48015 10.6813 9.47881 10.56 9.47881 10.432C9.47881 10.3013 9.48015 10.1773 9.48281 10.06C9.49348 9.83333 9.54948 9.64133 9.65081 9.484C9.75215 9.32667 9.89481 9.20667 10.0788 9.124C10.2628 9.04133 10.4788 9 10.7268 9C10.9268 9 11.1041 9.02533 11.2588 9.076C11.4135 9.124 11.5428 9.18933 11.6468 9.272C11.7535 9.35467 11.8335 9.44533 11.8868 9.544C11.9428 9.64267 11.9721 9.74 11.9748 9.836C11.9775 9.86 11.9695 9.88 11.9508 9.896C11.9348 9.912 11.9148 9.92 11.8908 9.92H11.3068C11.2775 9.92 11.2548 9.916 11.2388 9.908C11.2255 9.89733 11.2135 9.88267 11.2028 9.864C11.1841 9.824 11.1561 9.78267 11.1188 9.74C11.0841 9.69467 11.0348 9.656 10.9708 9.624C10.9095 9.592 10.8281 9.576 10.7268 9.576C10.5748 9.576 10.4548 9.616 10.3668 9.696C10.2815 9.776 10.2348 9.904 10.2268 10.08C10.2188 10.3093 10.2188 10.5413 10.2268 10.776C10.2348 10.9627 10.2841 11.0973 10.3748 11.18C10.4655 11.2627 10.5855 11.304 10.7348 11.304C10.8361 11.304 10.9255 11.2867 11.0028 11.252C11.0828 11.2173 11.1455 11.164 11.1908 11.092C11.2361 11.0173 11.2588 10.9227 11.2588 10.808V10.732H10.8828C10.8535 10.732 10.8281 10.7227 10.8068 10.704C10.7881 10.6827 10.7788 10.6573 10.7788 10.628V10.332C10.7788 10.3027 10.7881 10.2787 10.8068 10.26C10.8281 10.2387 10.8535 10.228 10.8828 10.228H11.8908C11.9201 10.228 11.9441 10.2387 11.9628 10.26C11.9815 10.2787 11.9908 10.3027 11.9908 10.332V10.788C11.9908 11.0173 11.9388 11.2133 11.8348 11.376C11.7308 11.5387 11.5828 11.664 11.3908 11.752C11.2015 11.8373 10.9801 11.88 10.7268 11.88Z" fill="white"/>
  </g>
  <defs>
    <clipPath id="clip0_2393_3860">
      <rect width="16" height="16" fill="white"/>
    </clipPath>
  </defs>
</svg>
