<svg width="16" height="16" viewBox="0 0 16 16" fill="none" xmlns="http://www.w3.org/2000/svg">
  <g clip-path="url(#clip0_2392_3790)">
    <path fill-rule="evenodd" clip-rule="evenodd" d="M4.09641 0H9.45115L13.9825 4.72993V13.9153C13.9825 15.0657 13.0541 16 11.9037 16H4.09641C2.95188 16 2.01758 15.0657 2.01758 13.9153V2.07883C2.01756 0.934301 2.95188 0 4.09641 0V0Z" fill="#D43B35"/>
    <path opacity="0.302" fill-rule="evenodd" clip-rule="evenodd" d="M9.44531 0V4.68905H13.9825L9.44531 0Z" fill="white"/>
    <path d="M4.1 11.8C4.07067 11.8 4.04667 11.7907 4.028 11.772C4.00933 11.7533 4 11.7293 4 11.7V9.1C4 9.07067 4.00933 9.04667 4.028 9.028C4.04667 9.00933 4.07067 9 4.1 9H5.22C5.44133 9 5.63333 9.03467 5.796 9.104C5.96133 9.17067 6.08933 9.272 6.18 9.408C6.27333 9.544 6.32 9.716 6.32 9.924C6.32 10.1293 6.27333 10.2987 6.18 10.432C6.08933 10.5653 5.96133 10.664 5.796 10.728C5.63333 10.792 5.44133 10.824 5.22 10.824H4.744V11.7C4.744 11.7293 4.73333 11.7533 4.712 11.772C4.69333 11.7907 4.66933 11.8 4.64 11.8H4.1ZM4.732 10.272H5.2C5.31467 10.272 5.40533 10.2427 5.472 10.184C5.54133 10.1253 5.576 10.036 5.576 9.916C5.576 9.81467 5.54667 9.72933 5.488 9.66C5.42933 9.59067 5.33333 9.556 5.2 9.556H4.732V10.272Z" fill="white"/>
    <path d="M6.80313 11.8C6.77379 11.8 6.74979 11.7907 6.73113 11.772C6.71246 11.7533 6.70312 11.7293 6.70312 11.7V9.1C6.70312 9.07067 6.71246 9.04667 6.73113 9.028C6.74979 9.00933 6.77379 9 6.80313 9H7.84313C8.10446 9 8.32713 9.04267 8.51113 9.128C8.69513 9.21067 8.83646 9.33333 8.93512 9.496C9.03379 9.656 9.08712 9.85467 9.09512 10.092C9.09779 10.2093 9.09912 10.312 9.09912 10.4C9.09912 10.488 9.09779 10.5893 9.09512 10.704C9.08446 10.952 9.03113 11.1573 8.93512 11.32C8.84179 11.4827 8.70446 11.604 8.52313 11.684C8.34446 11.7613 8.12446 11.8 7.86313 11.8H6.80313ZM7.41913 11.224H7.84313C7.95779 11.224 8.05246 11.2067 8.12712 11.172C8.20446 11.1347 8.26179 11.0773 8.29912 11C8.33912 10.9227 8.36046 10.8213 8.36312 10.696C8.36846 10.6187 8.37112 10.5493 8.37112 10.488C8.37379 10.4267 8.37379 10.3653 8.37112 10.304C8.37112 10.2427 8.36846 10.1747 8.36312 10.1C8.35779 9.91867 8.30979 9.78667 8.21912 9.704C8.13112 9.61867 7.99913 9.576 7.82313 9.576H7.41913V11.224Z" fill="white"/>
    <path d="M9.66641 11.8C9.63707 11.8 9.61307 11.7907 9.59441 11.772C9.57574 11.7533 9.56641 11.7293 9.56641 11.7V9.1C9.56641 9.07067 9.57574 9.04667 9.59441 9.028C9.61307 9.00933 9.63707 9 9.66641 9H11.5024C11.5317 9 11.5557 9.00933 11.5744 9.028C11.5957 9.04667 11.6064 9.07067 11.6064 9.1V9.504C11.6064 9.53333 11.5957 9.55733 11.5744 9.576C11.5557 9.59467 11.5317 9.604 11.5024 9.604H10.2704V10.192H11.4224C11.4517 10.192 11.4757 10.2027 11.4944 10.224C11.5157 10.2427 11.5264 10.2667 11.5264 10.296V10.696C11.5264 10.7227 11.5157 10.7467 11.4944 10.768C11.4757 10.7867 11.4517 10.796 11.4224 10.796H10.2704V11.7C10.2704 11.7293 10.2611 11.7533 10.2424 11.772C10.2237 11.7907 10.1997 11.8 10.1704 11.8H9.66641Z" fill="white"/>
  </g>
  <defs>
    <clipPath id="clip0_2392_3790">
      <rect width="16" height="16" fill="white"/>
    </clipPath>
  </defs>
</svg>
