<svg width="16" height="16" viewBox="0 0 16 16" fill="none" xmlns="http://www.w3.org/2000/svg">
  <g clip-path="url(#clip0_2393_3853)">
    <path fill-rule="evenodd" clip-rule="evenodd" d="M4.09641 0H9.45115L13.9825 4.72993V13.9153C13.9825 15.0657 13.0541 16 11.9037 16H4.09641C2.95188 16 2.01758 15.0657 2.01758 13.9153V2.07883C2.01756 0.934301 2.95188 0 4.09641 0V0Z" fill="#EA3B7A"/>
    <path opacity="0.302" fill-rule="evenodd" clip-rule="evenodd" d="M9.44531 0V4.68905H13.9825L9.44531 0Z" fill="white"/>
    <path d="M4.1 11.84C4.07067 11.84 4.04667 11.8307 4.028 11.812C4.00933 11.7933 4 11.7693 4 11.74V9.14C4 9.11067 4.00933 9.08667 4.028 9.068C4.04667 9.04933 4.07067 9.04 4.1 9.04H5.22C5.44133 9.04 5.63333 9.07467 5.796 9.144C5.96133 9.21067 6.08933 9.312 6.18 9.448C6.27333 9.584 6.32 9.756 6.32 9.964C6.32 10.1693 6.27333 10.3387 6.18 10.472C6.08933 10.6053 5.96133 10.704 5.796 10.768C5.63333 10.832 5.44133 10.864 5.22 10.864H4.744V11.74C4.744 11.7693 4.73333 11.7933 4.712 11.812C4.69333 11.8307 4.66933 11.84 4.64 11.84H4.1ZM4.732 10.312H5.2C5.31467 10.312 5.40533 10.2827 5.472 10.224C5.54133 10.1653 5.576 10.076 5.576 9.956C5.576 9.85467 5.54667 9.76933 5.488 9.7C5.42933 9.63067 5.33333 9.596 5.2 9.596H4.732V10.312Z" fill="white"/>
    <path d="M6.80313 11.84C6.77379 11.84 6.74979 11.8307 6.73113 11.812C6.71246 11.7933 6.70312 11.7693 6.70312 11.74V9.14C6.70312 9.11067 6.71246 9.08667 6.73113 9.068C6.74979 9.04933 6.77379 9.04 6.80313 9.04H7.22712C7.27246 9.04 7.30446 9.05067 7.32313 9.072C7.34446 9.09067 7.35779 9.10533 7.36313 9.116L8.33913 10.656V9.14C8.33913 9.11067 8.34846 9.08667 8.36713 9.068C8.38579 9.04933 8.40979 9.04 8.43912 9.04H8.91913C8.94846 9.04 8.97246 9.04933 8.99112 9.068C9.00979 9.08667 9.01912 9.11067 9.01912 9.14V11.74C9.01912 11.7667 9.00979 11.7907 8.99112 11.812C8.97246 11.8307 8.94846 11.84 8.91913 11.84H8.49112C8.44846 11.84 8.41646 11.8293 8.39512 11.808C8.37646 11.7867 8.36446 11.772 8.35912 11.764L7.38313 10.284V11.74C7.38313 11.7693 7.37379 11.7933 7.35513 11.812C7.33646 11.8307 7.31246 11.84 7.28313 11.84H6.80313Z" fill="white"/>
    <path d="M10.7341 11.88C10.4808 11.88 10.2621 11.8387 10.0781 11.756C9.89679 11.6707 9.75546 11.548 9.65412 11.388C9.55546 11.2253 9.50079 11.028 9.49012 10.796C9.48746 10.6813 9.48612 10.56 9.48612 10.432C9.48612 10.3013 9.48746 10.1773 9.49012 10.06C9.50079 9.83333 9.55679 9.64133 9.65812 9.484C9.75946 9.32667 9.90212 9.20667 10.0861 9.124C10.2701 9.04133 10.4861 9 10.7341 9C10.9341 9 11.1115 9.02533 11.2661 9.076C11.4208 9.124 11.5501 9.18933 11.6541 9.272C11.7608 9.35467 11.8408 9.44533 11.8941 9.544C11.9501 9.64267 11.9795 9.74 11.9821 9.836C11.9848 9.86 11.9768 9.88 11.9581 9.896C11.9421 9.912 11.9221 9.92 11.8981 9.92H11.3141C11.2848 9.92 11.2621 9.916 11.2461 9.908C11.2328 9.89733 11.2208 9.88267 11.2101 9.864C11.1915 9.824 11.1635 9.78267 11.1261 9.74C11.0915 9.69467 11.0421 9.656 10.9781 9.624C10.9168 9.592 10.8355 9.576 10.7341 9.576C10.5821 9.576 10.4621 9.616 10.3741 9.696C10.2888 9.776 10.2421 9.904 10.2341 10.08C10.2261 10.3093 10.2261 10.5413 10.2341 10.776C10.2421 10.9627 10.2915 11.0973 10.3821 11.18C10.4728 11.2627 10.5928 11.304 10.7421 11.304C10.8435 11.304 10.9328 11.2867 11.0101 11.252C11.0901 11.2173 11.1528 11.164 11.1981 11.092C11.2435 11.0173 11.2661 10.9227 11.2661 10.808V10.732H10.8901C10.8608 10.732 10.8355 10.7227 10.8141 10.704C10.7955 10.6827 10.7861 10.6573 10.7861 10.628V10.332C10.7861 10.3027 10.7955 10.2787 10.8141 10.26C10.8355 10.2387 10.8608 10.228 10.8901 10.228H11.8981C11.9275 10.228 11.9515 10.2387 11.9701 10.26C11.9888 10.2787 11.9981 10.3027 11.9981 10.332V10.788C11.9981 11.0173 11.9461 11.2133 11.8421 11.376C11.7381 11.5387 11.5901 11.664 11.3981 11.752C11.2088 11.8373 10.9875 11.88 10.7341 11.88Z" fill="white"/>
  </g>
  <defs>
    <clipPath id="clip0_2393_3853">
      <rect width="16" height="16" fill="white"/>
    </clipPath>
  </defs>
</svg>
