<svg width="16" height="16" viewBox="0 0 16 16" fill="none" xmlns="http://www.w3.org/2000/svg">
  <g clip-path="url(#clip0_2392_3799)">
    <path fill-rule="evenodd" clip-rule="evenodd" d="M4.09641 0H9.45115L13.9825 4.72993V13.9153C13.9825 15.0657 13.0541 16 11.9037 16H4.09641C2.95188 16 2.01758 15.0657 2.01758 13.9153V2.07883C2.01756 0.934301 2.95188 0 4.09641 0V0Z" fill="#ED702D"/>
    <path opacity="0.302" fill-rule="evenodd" clip-rule="evenodd" d="M9.44531 0V4.68905H13.9825L9.44531 0Z" fill="white"/>
    <path d="M4.29995 11.8C4.27062 11.8 4.24662 11.7907 4.22795 11.772C4.20928 11.7533 4.19995 11.7293 4.19995 11.7V9.1C4.19995 9.07067 4.20928 9.04667 4.22795 9.028C4.24662 9.00933 4.27062 9 4.29995 9H5.41995C5.64128 9 5.83328 9.03467 5.99595 9.104C6.16128 9.17067 6.28928 9.272 6.37995 9.408C6.47328 9.544 6.51995 9.716 6.51995 9.924C6.51995 10.1293 6.47328 10.2987 6.37995 10.432C6.28928 10.5653 6.16128 10.664 5.99595 10.728C5.83328 10.792 5.64128 10.824 5.41995 10.824H4.94395V11.7C4.94395 11.7293 4.93328 11.7533 4.91195 11.772C4.89328 11.7907 4.86928 11.8 4.83995 11.8H4.29995ZM4.93195 10.272H5.39995C5.51462 10.272 5.60528 10.2427 5.67195 10.184C5.74128 10.1253 5.77595 10.036 5.77595 9.916C5.77595 9.81467 5.74662 9.72933 5.68795 9.66C5.62928 9.59067 5.53328 9.556 5.39995 9.556H4.93195V10.272Z" fill="white"/>
    <path d="M7.61908 11.8C7.58974 11.8 7.56574 11.7907 7.54708 11.772C7.52841 11.7533 7.51908 11.7293 7.51908 11.7V9.628H6.80708C6.77774 9.628 6.75374 9.61867 6.73508 9.6C6.71641 9.57867 6.70708 9.55467 6.70708 9.528V9.1C6.70708 9.07067 6.71641 9.04667 6.73508 9.028C6.75374 9.00933 6.77774 9 6.80708 9H8.95908C8.98841 9 9.01241 9.00933 9.03108 9.028C9.04974 9.04667 9.05908 9.07067 9.05908 9.1V9.528C9.05908 9.55467 9.04974 9.57867 9.03108 9.6C9.01241 9.61867 8.98841 9.628 8.95908 9.628H8.24708V11.7C8.24708 11.7293 8.23774 11.7533 8.21908 11.772C8.20041 11.7907 8.17641 11.8 8.14708 11.8H7.61908Z" fill="white"/>
    <path d="M10.1386 11.8C10.1093 11.8 10.0853 11.7907 10.0666 11.772C10.0479 11.7533 10.0386 11.7293 10.0386 11.7V9.628H9.32661C9.29727 9.628 9.27327 9.61867 9.25461 9.6C9.23594 9.57867 9.22661 9.55467 9.22661 9.528V9.1C9.22661 9.07067 9.23594 9.04667 9.25461 9.028C9.27327 9.00933 9.29727 9 9.32661 9H11.4786C11.5079 9 11.5319 9.00933 11.5506 9.028C11.5693 9.04667 11.5786 9.07067 11.5786 9.1V9.528C11.5786 9.55467 11.5693 9.57867 11.5506 9.6C11.5319 9.61867 11.5079 9.628 11.4786 9.628H10.7666V11.7C10.7666 11.7293 10.7573 11.7533 10.7386 11.772C10.7199 11.7907 10.6959 11.8 10.6666 11.8H10.1386Z" fill="white"/>
  </g>
  <defs>
    <clipPath id="clip0_2392_3799">
      <rect width="16" height="16" fill="white"/>
    </clipPath>
  </defs>
</svg>
