<svg width="16" height="16" viewBox="0 0 16 16" fill="none" xmlns="http://www.w3.org/2000/svg">
  <path fill-rule="evenodd" clip-rule="evenodd" d="M2 12.4998C2 13.3283 2.67157 13.9998 3.5 13.9998H13.8333C14.6618 13.9998 15.3333 13.3283 15.3333 12.4998V6.1665C15.3333 5.33807 14.6618 4.6665 13.8333 4.6665H7.33333L5.77267 3.10584C5.49137 2.82454 5.10984 2.6665 4.71201 2.6665H3.5C2.67157 2.6665 2 3.33808 2 4.1665V12.4998Z" fill="#A428AE"/>
  <path fill-rule="evenodd" clip-rule="evenodd" d="M0.666626 11.1668C0.666626 11.9953 1.3382 12.6668 2.16663 12.6668H12.5C13.3284 12.6668 14 11.9953 14 11.1668V4.83349C14 4.00507 13.3284 3.3335 12.5 3.3335H5.99996L4.4393 1.77284C4.15799 1.49153 3.77646 1.3335 3.37864 1.3335H2.16663C1.3382 1.3335 0.666626 2.00507 0.666626 2.8335V11.1668Z" fill="#BF69C6"/>
  <path d="M3.6 9.8C3.57067 9.8 3.54667 9.79067 3.528 9.772C3.50933 9.75333 3.5 9.72933 3.5 9.7V7.1C3.5 7.07067 3.50933 7.04667 3.528 7.028C3.54667 7.00933 3.57067 7 3.6 7H4.688C5.032 7 5.30267 7.08 5.5 7.24C5.7 7.39733 5.8 7.62133 5.8 7.912C5.8 8.10133 5.75333 8.26133 5.66 8.392C5.56933 8.52267 5.44933 8.62133 5.3 8.688L5.852 9.672C5.86 9.688 5.864 9.70267 5.864 9.716C5.864 9.73733 5.85467 9.75733 5.836 9.776C5.82 9.792 5.8 9.8 5.776 9.8H5.248C5.19733 9.8 5.16 9.788 5.136 9.764C5.112 9.73733 5.09467 9.71333 5.084 9.692L4.628 8.812H4.216V9.7C4.216 9.72933 4.20667 9.75333 4.188 9.772C4.16933 9.79067 4.14533 9.8 4.116 9.8H3.6ZM4.216 8.248H4.68C4.80533 8.248 4.89867 8.21733 4.96 8.156C5.024 8.09467 5.056 8.01067 5.056 7.904C5.056 7.8 5.02533 7.716 4.964 7.652C4.90533 7.588 4.81067 7.556 4.68 7.556H4.216V8.248Z" fill="white"/>
  <path d="M6.10562 9.8C6.08429 9.8 6.06429 9.792 6.04562 9.776C6.02962 9.75733 6.02163 9.73733 6.02163 9.716C6.02163 9.70267 6.02296 9.69067 6.02562 9.68L6.96563 7.112C6.97363 7.08267 6.98962 7.05733 7.01362 7.036C7.04029 7.012 7.07629 7 7.12163 7H7.71362C7.75896 7 7.79362 7.012 7.81763 7.036C7.84429 7.05733 7.86162 7.08267 7.86962 7.112L8.80562 9.68C8.81096 9.69067 8.81362 9.70267 8.81362 9.716C8.81362 9.73733 8.80429 9.75733 8.78562 9.776C8.76962 9.792 8.74962 9.8 8.72563 9.8H8.23362C8.19362 9.8 8.16296 9.79067 8.14162 9.772C8.12296 9.75067 8.11096 9.732 8.10562 9.716L7.94963 9.308H6.88162L6.72962 9.716C6.72429 9.732 6.71229 9.75067 6.69362 9.772C6.67496 9.79067 6.64296 9.8 6.59763 9.8H6.10562ZM7.04562 8.732H7.78962L7.41363 7.676L7.04562 8.732Z" fill="white"/>
  <path d="M9.22891 9.8C9.19957 9.8 9.17557 9.79067 9.15691 9.772C9.13824 9.75333 9.12891 9.72933 9.12891 9.7V7.1C9.12891 7.07067 9.13824 7.04667 9.15691 7.028C9.17557 7.00933 9.19957 7 9.22891 7H10.3169C10.6609 7 10.9316 7.08 11.1289 7.24C11.3289 7.39733 11.4289 7.62133 11.4289 7.912C11.4289 8.10133 11.3822 8.26133 11.2889 8.392C11.1982 8.52267 11.0782 8.62133 10.9289 8.688L11.4809 9.672C11.4889 9.688 11.4929 9.70267 11.4929 9.716C11.4929 9.73733 11.4836 9.75733 11.4649 9.776C11.4489 9.792 11.4289 9.8 11.4049 9.8H10.8769C10.8262 9.8 10.7889 9.788 10.7649 9.764C10.7409 9.73733 10.7236 9.71333 10.7129 9.692L10.2569 8.812H9.84491V9.7C9.84491 9.72933 9.83557 9.75333 9.81691 9.772C9.79824 9.79067 9.77424 9.8 9.74491 9.8H9.22891ZM9.84491 8.248H10.3089C10.4342 8.248 10.5276 8.21733 10.5889 8.156C10.6529 8.09467 10.6849 8.01067 10.6849 7.904C10.6849 7.8 10.6542 7.716 10.5929 7.652C10.5342 7.588 10.4396 7.556 10.3089 7.556H9.84491V8.248Z" fill="white"/>
</svg>
