<svg width="16" height="16" viewBox="0 0 16 16" fill="none" xmlns="http://www.w3.org/2000/svg">
  <g clip-path="url(#clip0_2393_3820)">
    <path fill-rule="evenodd" clip-rule="evenodd" d="M4.09641 0H9.45115L13.9825 4.72993V13.9153C13.9825 15.0657 13.0541 16 11.9037 16H4.09641C2.95188 16 2.01758 15.0657 2.01758 13.9153V2.07883C2.01756 0.934301 2.95188 0 4.09641 0V0Z" fill="#2CADF0"/>
    <path opacity="0.302" fill-rule="evenodd" clip-rule="evenodd" d="M9.44531 0V4.68905H13.9825L9.44531 0Z" fill="white"/>
    <path d="M4.6 11.8C4.57067 11.8 4.54667 11.7907 4.528 11.772C4.50933 11.7533 4.5 11.7293 4.5 11.7V9.1C4.5 9.07067 4.50933 9.04667 4.528 9.028C4.54667 9.00933 4.57067 9 4.6 9H5.688C6.032 9 6.30267 9.08 6.5 9.24C6.7 9.39733 6.8 9.62133 6.8 9.912C6.8 10.1013 6.75333 10.2613 6.66 10.392C6.56933 10.5227 6.44933 10.6213 6.3 10.688L6.852 11.672C6.86 11.688 6.864 11.7027 6.864 11.716C6.864 11.7373 6.85467 11.7573 6.836 11.776C6.82 11.792 6.8 11.8 6.776 11.8H6.248C6.19733 11.8 6.16 11.788 6.136 11.764C6.112 11.7373 6.09467 11.7133 6.084 11.692L5.628 10.812H5.216V11.7C5.216 11.7293 5.20667 11.7533 5.188 11.772C5.16933 11.7907 5.14533 11.8 5.116 11.8H4.6ZM5.216 10.248H5.68C5.80533 10.248 5.89867 10.2173 5.96 10.156C6.024 10.0947 6.056 10.0107 6.056 9.904C6.056 9.8 6.02533 9.716 5.964 9.652C5.90533 9.588 5.81067 9.556 5.68 9.556H5.216V10.248Z" fill="white"/>
    <path d="M7.95428 11.8C7.92495 11.8 7.90095 11.7907 7.88228 11.772C7.86361 11.7533 7.85428 11.7293 7.85428 11.7V9.628H7.14228C7.11295 9.628 7.08895 9.61867 7.07028 9.6C7.05161 9.57867 7.04228 9.55467 7.04228 9.528V9.1C7.04228 9.07067 7.05161 9.04667 7.07028 9.028C7.08895 9.00933 7.11295 9 7.14228 9H9.29428C9.32361 9 9.34761 9.00933 9.36628 9.028C9.38495 9.04667 9.39428 9.07067 9.39428 9.1V9.528C9.39428 9.55467 9.38495 9.57867 9.36628 9.6C9.34761 9.61867 9.32361 9.628 9.29428 9.628H8.58228V11.7C8.58228 11.7293 8.57295 11.7533 8.55428 11.772C8.53561 11.7907 8.51161 11.8 8.48228 11.8H7.95428Z" fill="white"/>
    <path d="M9.85781 11.8C9.82848 11.8 9.80448 11.7907 9.78581 11.772C9.76715 11.7533 9.75781 11.7293 9.75781 11.7V9.1C9.75781 9.07067 9.76715 9.04667 9.78581 9.028C9.80448 9.00933 9.82848 9 9.85781 9H11.6938C11.7231 9 11.7471 9.00933 11.7658 9.028C11.7871 9.04667 11.7978 9.07067 11.7978 9.1V9.504C11.7978 9.53333 11.7871 9.55733 11.7658 9.576C11.7471 9.59467 11.7231 9.604 11.6938 9.604H10.4618V10.192H11.6138C11.6431 10.192 11.6671 10.2027 11.6858 10.224C11.7071 10.2427 11.7178 10.2667 11.7178 10.296V10.696C11.7178 10.7227 11.7071 10.7467 11.6858 10.768C11.6671 10.7867 11.6431 10.796 11.6138 10.796H10.4618V11.7C10.4618 11.7293 10.4525 11.7533 10.4338 11.772C10.4151 11.7907 10.3911 11.8 10.3618 11.8H9.85781Z" fill="white"/>
  </g>
  <defs>
    <clipPath id="clip0_2393_3820">
      <rect width="16" height="16" fill="white"/>
    </clipPath>
  </defs>
</svg>
