<svg width="16" height="16" viewBox="0 0 16 16" fill="none" xmlns="http://www.w3.org/2000/svg">
  <g clip-path="url(#clip0_2393_3810)">
    <path fill-rule="evenodd" clip-rule="evenodd" d="M4.09641 0H9.45115L13.9825 4.72993V13.9153C13.9825 15.0657 13.0541 16 11.9037 16H4.09641C2.95188 16 2.01758 15.0657 2.01758 13.9153V2.07883C2.01756 0.934301 2.95188 0 4.09641 0V0Z" fill="#5B6D7C"/>
    <path opacity="0.302" fill-rule="evenodd" clip-rule="evenodd" d="M9.44531 0V4.68905H13.9825L9.44531 0Z" fill="white"/>
    <path d="M4.912 11.8C4.88267 11.8 4.85867 11.7907 4.84 11.772C4.82133 11.7533 4.812 11.7293 4.812 11.7V9.628H4.1C4.07067 9.628 4.04667 9.61867 4.028 9.6C4.00933 9.57867 4 9.55467 4 9.528V9.1C4 9.07067 4.00933 9.04667 4.028 9.028C4.04667 9.00933 4.07067 9 4.1 9H6.252C6.28133 9 6.30533 9.00933 6.324 9.028C6.34267 9.04667 6.352 9.07067 6.352 9.1V9.528C6.352 9.55467 6.34267 9.57867 6.324 9.6C6.30533 9.61867 6.28133 9.628 6.252 9.628H5.54V11.7C5.54 11.7293 5.53067 11.7533 5.512 11.772C5.49333 11.7907 5.46933 11.8 5.44 11.8H4.912Z" fill="white"/>
    <path d="M6.56753 11.8C6.54353 11.8 6.5222 11.792 6.50353 11.776C6.48753 11.7573 6.47953 11.7373 6.47953 11.716C6.47953 11.708 6.48086 11.7 6.48353 11.692C6.4862 11.684 6.4902 11.676 6.49553 11.668L7.36753 10.372L6.55953 9.132C6.55153 9.116 6.54753 9.1 6.54753 9.084C6.54753 9.06267 6.55553 9.044 6.57153 9.028C6.58753 9.00933 6.60753 9 6.63153 9H7.21153C7.25153 9 7.2822 9.01067 7.30353 9.032C7.32486 9.05067 7.33953 9.068 7.34753 9.084L7.82753 9.812L8.31153 9.084C8.3222 9.068 8.3382 9.05067 8.35953 9.032C8.38086 9.01067 8.41153 9 8.45153 9H8.99953C9.02353 9 9.04353 9.00933 9.05953 9.028C9.0782 9.044 9.08753 9.06267 9.08753 9.084C9.08753 9.10267 9.0822 9.11867 9.07153 9.132L8.25953 10.368L9.13953 11.668C9.14487 11.676 9.14753 11.684 9.14753 11.692C9.1502 11.7 9.15153 11.708 9.15153 11.716C9.15153 11.7373 9.14353 11.7573 9.12753 11.776C9.11153 11.792 9.09153 11.8 9.06753 11.8H8.47153C8.43153 11.8 8.39953 11.7907 8.37553 11.772C8.3542 11.7507 8.33953 11.7333 8.33153 11.72L7.79953 10.952L7.27953 11.72C7.27153 11.7333 7.25686 11.7507 7.23553 11.772C7.2142 11.7907 7.18353 11.8 7.14353 11.8H6.56753Z" fill="white"/>
    <path d="M10.1933 11.8C10.1639 11.8 10.1399 11.7907 10.1212 11.772C10.1026 11.7533 10.0932 11.7293 10.0932 11.7V9.628H9.38125C9.35192 9.628 9.32792 9.61867 9.30925 9.6C9.29058 9.57867 9.28125 9.55467 9.28125 9.528V9.1C9.28125 9.07067 9.29058 9.04667 9.30925 9.028C9.32792 9.00933 9.35192 9 9.38125 9H11.5333C11.5626 9 11.5866 9.00933 11.6052 9.028C11.6239 9.04667 11.6332 9.07067 11.6332 9.1V9.528C11.6332 9.55467 11.6239 9.57867 11.6052 9.6C11.5866 9.61867 11.5626 9.628 11.5333 9.628H10.8212V11.7C10.8212 11.7293 10.8119 11.7533 10.7933 11.772C10.7746 11.7907 10.7506 11.8 10.7213 11.8H10.1933Z" fill="white"/>
  </g>
  <defs>
    <clipPath id="clip0_2393_3810">
      <rect width="16" height="16" fill="white"/>
    </clipPath>
  </defs>
</svg>
