<svg width="16" height="16" viewBox="0 0 16 16" fill="none" xmlns="http://www.w3.org/2000/svg">
  <g clip-path="url(#clip0_2392_3779)">
    <path fill-rule="evenodd" clip-rule="evenodd" d="M4.09641 0H9.45115L13.9825 4.72993V13.9153C13.9825 15.0657 13.0541 16 11.9037 16H4.09641C2.95188 16 2.01758 15.0657 2.01758 13.9153V2.07883C2.01756 0.934301 2.95188 0 4.09641 0V0Z" fill="#317141"/>
    <path opacity="0.302" fill-rule="evenodd" clip-rule="evenodd" d="M9.44531 0V4.68905H13.9825L9.44531 0Z" fill="white"/>
    <path d="M4.088 11.84C4.064 11.84 4.04267 11.832 4.024 11.816C4.008 11.7973 4 11.7773 4 11.756C4 11.748 4.00133 11.74 4.004 11.732C4.00667 11.724 4.01067 11.716 4.016 11.708L4.888 10.412L4.08 9.172C4.072 9.156 4.068 9.14 4.068 9.124C4.068 9.10267 4.076 9.084 4.092 9.068C4.108 9.04933 4.128 9.04 4.152 9.04H4.732C4.772 9.04 4.80267 9.05067 4.824 9.072C4.84533 9.09067 4.86 9.108 4.868 9.124L5.348 9.852L5.832 9.124C5.84267 9.108 5.85867 9.09067 5.88 9.072C5.90133 9.05067 5.932 9.04 5.972 9.04H6.52C6.544 9.04 6.564 9.04933 6.58 9.068C6.59867 9.084 6.608 9.10267 6.608 9.124C6.608 9.14267 6.60267 9.15867 6.592 9.172L5.78 10.408L6.66 11.708C6.66533 11.716 6.668 11.724 6.668 11.732C6.67067 11.74 6.672 11.748 6.672 11.756C6.672 11.7773 6.664 11.7973 6.648 11.816C6.632 11.832 6.612 11.84 6.588 11.84H5.992C5.952 11.84 5.92 11.8307 5.896 11.812C5.87467 11.7907 5.86 11.7733 5.852 11.76L5.32 10.992L4.8 11.76C4.792 11.7733 4.77733 11.7907 4.756 11.812C4.73467 11.8307 4.704 11.84 4.664 11.84H4.088Z" fill="white"/>
    <path d="M7.09772 11.84C7.06839 11.84 7.04439 11.8307 7.02572 11.812C7.00705 11.7933 6.99772 11.7693 6.99772 11.74V9.14C6.99772 9.11067 7.00705 9.08667 7.02572 9.068C7.04439 9.04933 7.06839 9.04 7.09772 9.04H7.62572C7.65239 9.04 7.67505 9.04933 7.69372 9.068C7.71505 9.08667 7.72572 9.11067 7.72572 9.14V11.236H8.93372C8.96305 11.236 8.98705 11.2467 9.00572 11.268C9.02705 11.2867 9.03772 11.3107 9.03772 11.34V11.74C9.03772 11.7693 9.02705 11.7933 9.00572 11.812C8.98705 11.8307 8.96305 11.84 8.93372 11.84H7.09772Z" fill="white"/>
    <path d="M10.4284 11.88C10.1618 11.88 9.94044 11.8427 9.76444 11.768C9.58844 11.6907 9.4551 11.5907 9.36444 11.468C9.27377 11.3453 9.22577 11.2147 9.22044 11.076C9.22044 11.0547 9.22844 11.036 9.24444 11.02C9.2631 11.0013 9.28444 10.992 9.30844 10.992H9.81244C9.84977 10.992 9.87777 10.9987 9.89644 11.012C9.91777 11.0253 9.93644 11.0427 9.95244 11.064C9.97377 11.104 10.0031 11.1427 10.0404 11.18C10.0804 11.2173 10.1311 11.248 10.1924 11.272C10.2564 11.2933 10.3351 11.304 10.4284 11.304C10.5831 11.304 10.6991 11.28 10.7764 11.232C10.8564 11.184 10.8964 11.1187 10.8964 11.036C10.8964 10.9773 10.8751 10.9293 10.8324 10.892C10.7898 10.852 10.7204 10.8173 10.6244 10.788C10.5311 10.756 10.4058 10.724 10.2484 10.692C10.0458 10.6493 9.87244 10.5947 9.72844 10.528C9.5871 10.4587 9.4791 10.3693 9.40444 10.26C9.32977 10.148 9.29244 10.0093 9.29244 9.844C9.29244 9.68133 9.33777 9.536 9.42844 9.408C9.52177 9.28 9.6511 9.18 9.81644 9.108C9.98177 9.036 10.1778 9 10.4044 9C10.5884 9 10.7498 9.024 10.8884 9.072C11.0298 9.12 11.1484 9.184 11.2444 9.264C11.3404 9.344 11.4124 9.42933 11.4604 9.52C11.5111 9.608 11.5378 9.69467 11.5404 9.78C11.5404 9.80133 11.5324 9.82133 11.5164 9.84C11.5004 9.856 11.4804 9.864 11.4564 9.864H10.9284C10.8991 9.864 10.8738 9.85867 10.8524 9.848C10.8311 9.83733 10.8124 9.82 10.7964 9.796C10.7804 9.73733 10.7378 9.68667 10.6684 9.644C10.6018 9.59867 10.5138 9.576 10.4044 9.576C10.2871 9.576 10.1951 9.59733 10.1284 9.64C10.0644 9.68 10.0324 9.74267 10.0324 9.828C10.0324 9.88133 10.0498 9.928 10.0844 9.968C10.1218 10.008 10.1818 10.0427 10.2644 10.072C10.3498 10.1013 10.4658 10.132 10.6124 10.164C10.8551 10.2093 11.0511 10.2667 11.2004 10.336C11.3498 10.4027 11.4591 10.4907 11.5284 10.6C11.5978 10.7067 11.6324 10.8413 11.6324 11.004C11.6324 11.1853 11.5804 11.3427 11.4764 11.476C11.3751 11.6067 11.2338 11.7067 11.0524 11.776C10.8711 11.8453 10.6631 11.88 10.4284 11.88Z" fill="white"/>
  </g>
  <defs>
    <clipPath id="clip0_2392_3779">
      <rect width="16" height="16" fill="white"/>
    </clipPath>
  </defs>
</svg>
