<svg width="16" height="16" viewBox="0 0 16 16" fill="none" xmlns="http://www.w3.org/2000/svg">
  <path fill-rule="evenodd" clip-rule="evenodd" d="M2 12.4998C2 13.3283 2.67157 13.9998 3.5 13.9998H13.8333C14.6618 13.9998 15.3333 13.3283 15.3333 12.4998V6.1665C15.3333 5.33807 14.6618 4.6665 13.8333 4.6665H7.33333L5.77267 3.10584C5.49137 2.82454 5.10984 2.6665 4.71201 2.6665H3.5C2.67157 2.6665 2 3.33808 2 4.1665V12.4998Z" fill="#539E0C"/>
  <path fill-rule="evenodd" clip-rule="evenodd" d="M0.666626 11.1668C0.666626 11.9953 1.3382 12.6668 2.16663 12.6668H12.5C13.3284 12.6668 14 11.9953 14 11.1668V4.83349C14 4.00507 13.3284 3.3335 12.5 3.3335H5.99996L4.4393 1.77284C4.15799 1.49153 3.77646 1.3335 3.37864 1.3335H2.16663C1.3382 1.3335 0.666626 2.00507 0.666626 2.8335V11.1668Z" fill="#87BB55"/>
  <path d="M4.1 9.8C4.07067 9.8 4.04667 9.79067 4.028 9.772C4.00933 9.75067 4 9.72667 4 9.7V9.308C4 9.27067 4.00667 9.24 4.02 9.216C4.036 9.192 4.04933 9.17467 4.06 9.164L5.348 7.596H4.136C4.10933 7.596 4.08533 7.58667 4.064 7.568C4.04533 7.54933 4.036 7.52533 4.036 7.496V7.1C4.036 7.07067 4.04533 7.04667 4.064 7.028C4.08533 7.00933 4.10933 7 4.136 7H6.152C6.18133 7 6.20533 7.00933 6.224 7.028C6.24533 7.04667 6.256 7.07067 6.256 7.1V7.488C6.256 7.51733 6.25067 7.54267 6.24 7.564C6.232 7.58533 6.22 7.60533 6.204 7.624L4.952 9.196H6.2C6.22933 9.196 6.25333 9.20667 6.272 9.228C6.29333 9.24667 6.304 9.27067 6.304 9.3V9.7C6.304 9.72933 6.29333 9.75333 6.272 9.772C6.25333 9.79067 6.22933 9.8 6.2 9.8H4.1Z" fill="white"/>
  <path d="M6.82956 9.8C6.80023 9.8 6.77623 9.79067 6.75756 9.772C6.7389 9.75333 6.72956 9.72933 6.72956 9.7V7.1C6.72956 7.07067 6.7389 7.04667 6.75756 7.028C6.77623 7.00933 6.80023 7 6.82956 7H7.36556C7.3949 7 7.4189 7.00933 7.43756 7.028C7.45623 7.04667 7.46556 7.07067 7.46556 7.1V9.7C7.46556 9.72933 7.45623 9.75333 7.43756 9.772C7.4189 9.79067 7.3949 9.8 7.36556 9.8H6.82956Z" fill="white"/>
  <path d="M8.12644 9.8C8.0971 9.8 8.0731 9.79067 8.05444 9.772C8.03577 9.75333 8.02644 9.72933 8.02644 9.7V7.1C8.02644 7.07067 8.03577 7.04667 8.05444 7.028C8.0731 7.00933 8.0971 7 8.12644 7H9.24644C9.46777 7 9.65977 7.03467 9.82244 7.104C9.98777 7.17067 10.1158 7.272 10.2064 7.408C10.2998 7.544 10.3464 7.716 10.3464 7.924C10.3464 8.12933 10.2998 8.29867 10.2064 8.432C10.1158 8.56533 9.98777 8.664 9.82244 8.728C9.65977 8.792 9.46777 8.824 9.24644 8.824H8.77044V9.7C8.77044 9.72933 8.75977 9.75333 8.73844 9.772C8.71977 9.79067 8.69577 9.8 8.66644 9.8H8.12644ZM8.75844 8.272H9.22644C9.3411 8.272 9.43177 8.24267 9.49844 8.184C9.56777 8.12533 9.60244 8.036 9.60244 7.916C9.60244 7.81467 9.5731 7.72933 9.51444 7.66C9.45577 7.59067 9.35977 7.556 9.22644 7.556H8.75844V8.272Z" fill="white"/>
</svg>

