<svg width="36" height="36" viewBox="0 0 36 36" fill="none" xmlns="http://www.w3.org/2000/svg">
    <circle cx="18" cy="18" r="18" fill="#AFD9FF"/>
    <path fill-rule="evenodd" clip-rule="evenodd" d="M18.9743 10.3335H13.9046C12.6801 10.3335 12.6665 10.4176 12.6665 11.6113V22.3891C12.6665 23.5827 12.6801 23.6668 13.9046 23.6668H22.0951C23.3195 23.6668 23.3332 23.5827 23.3332 22.3891V14.2516C23.3332 13.8103 23.1388 13.3913 22.8019 13.1063L19.943 10.6882C19.6722 10.4592 19.329 10.3335 18.9743 10.3335ZM16.8026 19.3087C16.9304 19.4364 17.0901 19.5003 17.2498 19.5003C17.4095 19.5003 17.5692 19.4364 17.697 19.3087L20.2526 16.7531C20.5081 16.4975 20.5081 16.1142 20.2526 15.8587C19.997 15.6031 19.6137 15.6031 19.3581 15.8587L17.2498 17.967L16.4192 17.1364C16.1956 16.8809 15.7804 16.8809 15.5248 17.1364C15.2692 17.392 15.2692 17.7753 15.5248 18.0309L16.8026 19.3087Z" fill="white"/>
</svg>
