<svg width="36" height="36" viewBox="0 0 36 36" fill="none" xmlns="http://www.w3.org/2000/svg">
    <circle cx="18" cy="18" r="18" fill="#26C3BA"/>
    <path fill-rule="evenodd" clip-rule="evenodd" d="M14.6279 17.0345C14.9852 16.6378 15.5644 16.6378 15.9216 17.0345L19.8486 21.3959V12.6729C19.8486 12.1118 19.439 11.6569 18.9338 11.6569H9.74808C9.24287 11.6569 8.83331 11.2021 8.83331 10.641C8.83331 10.0799 9.24287 9.625 9.74808 9.625H18.9338C20.4494 9.625 21.6781 10.9896 21.6781 12.6729V21.5392L25.6338 17.512C26.0063 17.1328 26.5849 17.1608 26.9263 17.5744C27.2677 17.988 27.2425 18.6307 26.8701 19.0098L21.3815 24.5977C21.0205 24.9652 20.4628 24.9518 20.1165 24.5671L14.6279 18.4713C14.2707 18.0746 14.2707 17.4313 14.6279 17.0345Z" fill="white"/>
    <path d="M15.9216 17.0345L15.55 17.3691L15.55 17.3691L15.9216 17.0345ZM14.6279 17.0345L14.2563 16.7L14.2563 16.7L14.6279 17.0345ZM19.8486 21.3959L19.477 21.7305L20.3486 22.6985V21.3959H19.8486ZM21.6781 21.5392H21.1781V22.7618L22.0348 21.8896L21.6781 21.5392ZM25.6338 17.512L25.9905 17.8623L25.9906 17.8623L25.6338 17.512ZM26.9263 17.5744L27.3119 17.2561L27.3119 17.2561L26.9263 17.5744ZM26.8701 19.0098L27.2268 19.3602L27.2268 19.3602L26.8701 19.0098ZM21.3815 24.5977L21.7382 24.948L21.7382 24.948L21.3815 24.5977ZM20.1165 24.5671L20.4881 24.2326L20.4881 24.2326L20.1165 24.5671ZM14.6279 18.4713L14.2563 18.8059L14.2563 18.8059L14.6279 18.4713ZM16.2932 16.7C15.7373 16.0826 14.8122 16.0826 14.2563 16.7L14.9995 17.3691C15.1581 17.1929 15.3914 17.1929 15.55 17.3691L16.2932 16.7ZM20.2201 21.0614L16.2932 16.7L15.55 17.3691L19.477 21.7305L20.2201 21.0614ZM20.3486 21.3959V12.6729H19.3486V21.3959H20.3486ZM20.3486 12.6729C20.3486 11.8863 19.7632 11.1569 18.9338 11.1569V12.1569C19.1148 12.1569 19.3486 12.3373 19.3486 12.6729H20.3486ZM18.9338 11.1569H9.74808V12.1569H18.9338V11.1569ZM9.74808 11.1569C9.56707 11.1569 9.33331 10.9766 9.33331 10.641H8.33331C8.33331 11.4276 8.91867 12.1569 9.74808 12.1569V11.1569ZM9.33331 10.641C9.33331 10.3054 9.56707 10.125 9.74808 10.125V9.125C8.91867 9.125 8.33331 9.85437 8.33331 10.641H9.33331ZM9.74808 10.125H18.9338V9.125H9.74808V10.125ZM18.9338 10.125C20.1252 10.125 21.1781 11.2151 21.1781 12.6729H22.1781C22.1781 10.7641 20.7736 9.125 18.9338 9.125V10.125ZM21.1781 12.6729V21.5392H22.1781V12.6729H21.1781ZM25.2771 17.1616L21.3214 21.1889L22.0348 21.8896L25.9905 17.8623L25.2771 17.1616ZM27.3119 17.2561C26.7848 16.6175 25.861 16.5672 25.2771 17.1616L25.9906 17.8623C26.1515 17.6985 26.385 17.704 26.5407 17.8927L27.3119 17.2561ZM27.2268 19.3602C27.7812 18.7958 27.8139 17.8643 27.3119 17.2561L26.5407 17.8927C26.7215 18.1117 26.7039 18.4655 26.5134 18.6595L27.2268 19.3602ZM21.7382 24.948L27.2268 19.3602L26.5134 18.6595L21.0248 24.2473L21.7382 24.948ZM19.745 24.9017C20.2825 25.4988 21.1736 25.5229 21.7382 24.948L21.0248 24.2473C20.8674 24.4076 20.6432 24.4048 20.4881 24.2326L19.745 24.9017ZM14.2563 18.8059L19.745 24.9017L20.4881 24.2326L14.9995 18.1368L14.2563 18.8059ZM14.2563 16.7C13.7279 17.2869 13.7279 18.2189 14.2563 18.8059L14.9995 18.1368C14.8135 17.9302 14.8135 17.5757 14.9995 17.3691L14.2563 16.7Z" fill="white"/>
</svg>
