<svg width="36" height="36" viewBox="0 0 36 36" fill="none" xmlns="http://www.w3.org/2000/svg">
    <path d="M32 16C32 24.8366 24.8366 32 16 32C7.16344 32 0 24.8366 0 16C0 7.16344 7.16344 0 16 0C24.8366 0 32 7.16344 32 16Z"
          fill="#84D0FD"/>
    <path d="M15.2668 9.3335C15.635 9.3335 15.9335 9.63197 15.9335 10.0002C15.9335 10.3684 15.635 10.6668 15.2668 10.6668H12.0002C11.2638 10.6668 10.6668 11.2638 10.6668 12.0002V20.0002C10.6668 20.7365 11.2638 21.3335 12.0002 21.3335H20.0002C20.7365 21.3335 21.3335 20.7365 21.3335 20.0002V18.6668C21.3335 18.2986 21.632 18.0002 22.0002 18.0002C22.3684 18.0002 22.6668 18.2986 22.6668 18.6668V20.0002C22.6668 21.4729 21.4729 22.6668 20.0002 22.6668H12.0002C10.5274 22.6668 9.3335 21.4729 9.3335 20.0002V12.0002C9.3335 10.5274 10.5274 9.3335 12.0002 9.3335H15.2668Z"
          fill="white" stroke="white"/>
    <path d="M12.6697 17.265C12.6697 16.7565 12.5608 14.7499 14.1437 13.1578C15.2091 12.0864 16.8035 11.9006 18.7103 11.8158V9.78975C18.7103 9.13901 19.4823 8.79704 19.9643 9.23429L23.6831 12.6081C24.0089 12.9037 24.0115 13.4149 23.6887 13.7138L19.9699 17.1578C19.4898 17.6025 18.7103 17.2619 18.7103 16.6075V14.6052C17.4997 14.6385 16.6373 14.7155 15.8538 14.9648C14.3394 15.4465 13.4408 17.5124 13.1985 18.1417C13.1567 18.2502 13.0532 18.3243 12.9369 18.3243C12.7877 18.3243 12.6668 18.2034 12.6672 18.0542C12.6681 17.7795 12.6697 17.4638 12.6697 17.265Z"
          fill="white"/>
</svg>
