<svg width="36" height="36" viewBox="0 0 36 36" fill="none" xmlns="http://www.w3.org/2000/svg">
    <circle cx="18" cy="18" r="18" fill="#8BD5FF"/>
    <path d="M17.0834 9.66667C17.5437 9.66667 17.9167 10.0398 17.9167 10.5C17.9167 10.9602 17.5437 11.3333 17.0834 11.3333H13.0001C12.0796 11.3333 11.3334 12.0795 11.3334 13V23C11.3334 23.9205 12.0796 24.6667 13.0001 24.6667H23.0001C23.9206 24.6667 24.6667 23.9205 24.6667 23V21.3333C24.6667 20.8731 25.0398 20.5 25.5001 20.5C25.9603 20.5 26.3334 20.8731 26.3334 21.3333V23C26.3334 24.841 24.841 26.3333 23.0001 26.3333H13.0001C11.1591 26.3333 9.66675 24.841 9.66675 23V13C9.66675 11.1591 11.1591 9.66667 13.0001 9.66667H17.0834Z" fill="white" stroke="white"/>
    <path d="M13.8372 19.5811C13.8372 18.9455 13.701 16.4372 15.6796 14.4472C17.0114 13.1079 19.0044 12.8756 21.3879 12.7696V9.81377C21.3879 9.16303 22.1599 8.82106 22.6419 9.2583L27.7553 13.8974C28.0811 14.193 28.0838 14.7042 27.761 15.0031L22.6475 19.7387C22.1674 20.1834 21.3879 19.8429 21.3879 19.1885V16.2563C19.8746 16.298 18.7966 16.3942 17.8172 16.7058C15.9243 17.308 14.801 19.8904 14.4981 20.677C14.4458 20.8126 14.3165 20.9053 14.1711 20.9053V20.9053C13.9846 20.9053 13.8334 20.7541 13.834 20.5676C13.8351 20.2243 13.8372 19.8296 13.8372 19.5811Z" fill="white"/>
</svg>
