<svg width="36" height="36" viewBox="0 0 36 36" fill="none" xmlns="http://www.w3.org/2000/svg">
    <circle cx="18" cy="18" r="18" fill="#8A8F98"/>
    <path fill-rule="evenodd" clip-rule="evenodd" d="M15.7071 18.7071C16.0976 18.3166 16.0976 17.6834 15.7071 17.2929L14.4142 16H24C24.5523 16 25 15.5523 25 15C25 14.4477 24.5523 14 24 14H14.4142L15.7071 12.7071C16.0976 12.3166 16.0976 11.6834 15.7071 11.2929C15.3166 10.9024 14.6834 10.9024 14.2929 11.2929L11.2929 14.2929C10.9024 14.6834 10.9024 15.3166 11.2929 15.7071L14.2929 18.7071C14.6834 19.0976 15.3166 19.0976 15.7071 18.7071ZM21.5858 21L20.2929 19.7071C19.9024 19.3166 19.9024 18.6834 20.2929 18.2929C20.6834 17.9024 21.3166 17.9024 21.7071 18.2929L24.7071 21.2929C25.0976 21.6834 25.0976 22.3166 24.7071 22.7071L21.7071 25.7071C21.3166 26.0976 20.6834 26.0976 20.2929 25.7071C19.9024 25.3166 19.9024 24.6834 20.2929 24.2929L21.5858 23H12C11.4477 23 11 22.5523 11 22C11 21.4477 11.4477 21 12 21H21.5858Z" fill="white"/>
</svg>
