<svg width="36" height="36" viewBox="0 0 36 36" fill="none" xmlns="http://www.w3.org/2000/svg">
    <circle cx="18" cy="18" r="18" fill="#8A8F98"/>
    <path d="M12.375 8C11.4799 8 10.6214 8.42143 9.98851 9.17157C9.35558 9.92172 9 10.9391 9 12H27C27 10.9391 26.6444 9.92172 26.0115 9.17157C25.3786 8.42143 24.5201 8 23.625 8H12.375Z" fill="white"/>
    <path fill-rule="evenodd" clip-rule="evenodd" d="M10.7273 13C10.004 13 9.31026 13.2975 8.7988 13.827C8.28734 14.3565 8 15.0747 8 15.8235V21.4706C8 22.2194 8.28734 22.9376 8.7988 23.4671C9.31026 23.9966 10.004 24.2941 10.7273 24.2941H11.6364V26.1765C11.6364 26.9253 11.9237 27.6435 12.4352 28.173C12.9466 28.7025 13.6403 29 14.3636 29H21.6364C22.3597 29 23.0534 28.7025 23.5648 28.173C24.0763 27.6435 24.3636 26.9253 24.3636 26.1765V24.2941H25.2727C25.996 24.2941 26.6897 23.9966 27.2012 23.4671C27.7127 22.9376 28 22.2194 28 21.4706V15.8235C28 15.0747 27.7127 14.3565 27.2012 13.827C26.6897 13.2975 25.996 13 25.2727 13H10.7273ZM14.8182 19.5882C14.4565 19.5882 14.1097 19.737 13.8539 20.0017C13.5982 20.2665 13.4545 20.6256 13.4545 21V25.7059C13.4545 26.0803 13.5982 26.4394 13.8539 26.7042C14.1097 26.9689 14.4565 27.1176 14.8182 27.1176H21.1818C21.5435 27.1176 21.8903 26.9689 22.1461 26.7042C22.4018 26.4394 22.5455 26.0803 22.5455 25.7059V21C22.5455 20.6256 22.4018 20.2665 22.1461 20.0017C21.8903 19.737 21.5435 19.5882 21.1818 19.5882H14.8182Z" fill="white"/>
</svg>
