<svg width="36" height="36" viewBox="0 0 36 36" fill="none" xmlns="http://www.w3.org/2000/svg">
    <circle cx="18" cy="18" r="18" fill="#8BD5FF"/>
    <path d="M14.875 11C14.3777 11 13.9008 11.2107 13.5492 11.5858C13.1975 11.9609 13 12.4696 13 13H23C23 12.4696 22.8025 11.9609 22.4508 11.5858C22.0992 11.2107 21.6223 11 21.125 11H14.875Z"
          fill="white"/>
    <path fill-rule="evenodd" clip-rule="evenodd"
          d="M12.9091 14C12.4028 14 11.9172 14.2045 11.5592 14.5686C11.2011 14.9326 11 15.4263 11 15.9412V19.8235C11 20.3384 11.2011 20.8321 11.5592 21.1961C11.9172 21.5602 12.4028 21.7647 12.9091 21.7647H13.5455V23.0588C13.5455 23.5737 13.7466 24.0674 14.1046 24.4314C14.4626 24.7955 14.9482 25 15.4545 25H20.5455C21.0518 25 21.5374 24.7955 21.8954 24.4314C22.2534 24.0674 22.4545 23.5737 22.4545 23.0588V21.7647H23.0909C23.5972 21.7647 24.0828 21.5602 24.4408 21.1961C24.7989 20.8321 25 20.3384 25 19.8235V15.9412C25 15.4263 24.7989 14.9326 24.4408 14.5686C24.0828 14.2045 23.5972 14 23.0909 14H12.9091ZM15.7727 18.5294C15.5196 18.5294 15.2768 18.6317 15.0978 18.8137C14.9187 18.9957 14.8182 19.2426 14.8182 19.5V22.7353C14.8182 22.9927 14.9187 23.2396 15.0978 23.4216C15.2768 23.6036 15.5196 23.7059 15.7727 23.7059H20.2273C20.4804 23.7059 20.7232 23.6036 20.9022 23.4216C21.0812 23.2396 21.1818 22.9927 21.1818 22.7353V19.5C21.1818 19.2426 21.0812 18.9957 20.9022 18.8137C20.7232 18.6317 20.4804 18.5294 20.2273 18.5294H15.7727Z"
          fill="white"/>
</svg>
