<svg width="36" height="36" viewBox="0 0 36 36" fill="none" xmlns="http://www.w3.org/2000/svg">
    <circle cx="18" cy="18" r="18" fill="#26C3BA"/>
    <path fill-rule="evenodd" clip-rule="evenodd" d="M21.3721 17.9655C21.0148 18.3622 20.4356 18.3622 20.0784 17.9655L16.1514 13.6041V22.3271C16.1514 22.8882 16.561 23.3431 17.0662 23.3431H26.2519C26.7571 23.3431 27.1667 23.7979 27.1667 24.359C27.1667 24.9201 26.7571 25.375 26.2519 25.375H17.0662C15.5506 25.375 14.3219 24.0104 14.3219 22.3271V13.4608L10.3662 17.488C9.99374 17.8672 9.41508 17.8392 9.0737 17.4256C8.73232 17.012 8.75747 16.3693 9.12989 15.9902L14.6185 10.4023C14.9795 10.0348 15.5372 10.0482 15.8835 10.4329L21.3721 16.5287C21.7293 16.9254 21.7293 17.5687 21.3721 17.9655Z" fill="white"/>
    <path d="M20.0784 17.9655L20.45 17.6309L20.45 17.6309L20.0784 17.9655ZM21.3721 17.9655L21.7437 18.3L21.7437 18.3L21.3721 17.9655ZM16.1514 13.6041L16.523 13.2695L15.6514 12.3015V13.6041H16.1514ZM14.3219 13.4608H14.8219V12.2382L13.9652 13.1104L14.3219 13.4608ZM10.3662 17.488L10.0095 17.1377L10.0094 17.1377L10.3662 17.488ZM9.0737 17.4256L8.68808 17.7439L8.68808 17.7439L9.0737 17.4256ZM9.12989 15.9902L8.77319 15.6398L8.77319 15.6398L9.12989 15.9902ZM14.6185 10.4023L14.2618 10.052L14.2618 10.052L14.6185 10.4023ZM15.8835 10.4329L15.5119 10.7674L15.5119 10.7674L15.8835 10.4329ZM21.3721 16.5287L21.7437 16.1941L21.7437 16.1941L21.3721 16.5287ZM19.7068 18.3C20.2627 18.9174 21.1878 18.9174 21.7437 18.3L21.0005 17.6309C20.8419 17.8071 20.6086 17.8071 20.45 17.6309L19.7068 18.3ZM15.7799 13.9386L19.7068 18.3L20.45 17.6309L16.523 13.2695L15.7799 13.9386ZM15.6514 13.6041V22.3271H16.6514V13.6041H15.6514ZM15.6514 22.3271C15.6514 23.1137 16.2368 23.8431 17.0662 23.8431V22.8431C16.8852 22.8431 16.6514 22.6627 16.6514 22.3271H15.6514ZM17.0662 23.8431H26.2519V22.8431H17.0662V23.8431ZM26.2519 23.8431C26.4329 23.8431 26.6667 24.0234 26.6667 24.359H27.6667C27.6667 23.5724 27.0813 22.8431 26.2519 22.8431V23.8431ZM26.6667 24.359C26.6667 24.6946 26.4329 24.875 26.2519 24.875V25.875C27.0813 25.875 27.6667 25.1456 27.6667 24.359H26.6667ZM26.2519 24.875H17.0662V25.875H26.2519V24.875ZM17.0662 24.875C15.8748 24.875 14.8219 23.7849 14.8219 22.3271H13.8219C13.8219 24.2359 15.2264 25.875 17.0662 25.875V24.875ZM14.8219 22.3271V13.4608H13.8219V22.3271H14.8219ZM10.7229 17.8384L14.6786 13.8111L13.9652 13.1104L10.0095 17.1377L10.7229 17.8384ZM8.68808 17.7439C9.21516 18.3825 10.139 18.4328 10.7229 17.8384L10.0094 17.1377C9.84848 17.3015 9.61501 17.296 9.45932 17.1073L8.68808 17.7439ZM8.77319 15.6398C8.21883 16.2042 8.18609 17.1357 8.68808 17.7439L9.45932 17.1073C9.27854 16.8883 9.29612 16.5345 9.4866 16.3405L8.77319 15.6398ZM14.2618 10.052L8.77319 15.6398L9.4866 16.3405L14.9752 10.7527L14.2618 10.052ZM16.255 10.0983C15.7175 9.50124 14.8264 9.47711 14.2618 10.052L14.9752 10.7527C15.1326 10.5924 15.3568 10.5952 15.5119 10.7674L16.255 10.0983ZM21.7437 16.1941L16.255 10.0983L15.5119 10.7674L21.0005 16.8632L21.7437 16.1941ZM21.7437 18.3C22.2721 17.7131 22.2721 16.7811 21.7437 16.1941L21.0005 16.8632C21.1865 17.0698 21.1865 17.4243 21.0005 17.6309L21.7437 18.3Z" fill="white"/>
</svg>
