<svg width="36" height="36" viewBox="0 0 36 36" fill="none" xmlns="http://www.w3.org/2000/svg">
    <circle cx="18" cy="18" r="18" fill="#FFB800"/>
    <path d="M26.3333 17C26.3333 15.3518 25.8445 13.7407 24.9288 12.3702C24.0132 10.9998 22.7117 9.93173 21.1889 9.301C19.6662 8.67027 17.9907 8.50524 16.3742 8.82678C14.7577 9.14833 13.2728 9.942 12.1074 11.1074C10.9419 12.2729 10.1483 13.7577 9.82671 15.3742C9.50516 16.9907 9.67019 18.6663 10.3009 20.189C10.9317 21.7117 11.9998 23.0132 13.3702 23.9289C14.7406 24.8446 16.3517 25.3333 17.9999 25.3333" stroke="#FCFCFC" stroke-width="3" stroke-linecap="round" stroke-linejoin="round"/>
    <path d="M30.1541 15.2893L26.148 19.4063L22.0311 15.4003" stroke="#FCFCFC" stroke-width="2" stroke-linecap="round" stroke-linejoin="round"/>
</svg>
