<svg width="36" height="36" viewBox="0 0 36 36" fill="none" xmlns="http://www.w3.org/2000/svg">
    <circle cx="18" cy="18" r="18" fill="#8A8F98"/>
    <path fill-rule="evenodd" clip-rule="evenodd" d="M15 11.25H13C12.4477 11.25 12 11.6977 12 12.25V25.25C12 25.8023 12.4477 26.25 13 26.25H23C23.5523 26.25 24 25.8023 24 25.25V12.25C24 11.6977 23.5523 11.25 23 11.25H21V11.625C21 12.2463 20.4963 12.75 19.875 12.75H16.125C15.5037 12.75 15 12.2463 15 11.625V11.25ZM17.25 16.875C16.8358 16.875 16.5 17.2108 16.5 17.625C16.5 18.0392 16.8358 18.375 17.25 18.375H21C21.4142 18.375 21.75 18.0392 21.75 17.625C21.75 17.2108 21.4142 16.875 21 16.875H17.25ZM14.25 17.625C14.25 17.2108 14.5858 16.875 15 16.875C15.4142 16.875 15.75 17.2108 15.75 17.625C15.75 18.0392 15.4142 18.375 15 18.375C14.5858 18.375 14.25 18.0392 14.25 17.625ZM15 19.8754C14.5858 19.8754 14.25 20.2112 14.25 20.6254C14.25 21.0396 14.5858 21.3754 15 21.3754C15.4142 21.3754 15.75 21.0396 15.75 20.6254C15.75 20.2112 15.4142 19.8754 15 19.8754ZM16.5 20.6254C16.5 20.2112 16.8358 19.8754 17.25 19.8754H21C21.4142 19.8754 21.75 20.2112 21.75 20.6254C21.75 21.0396 21.4142 21.3754 21 21.3754H17.25C16.8358 21.3754 16.5 21.0396 16.5 20.6254Z" fill="white"/>
    <path fill-rule="evenodd" clip-rule="evenodd" d="M18.75 10.4996C18.7499 10.0855 18.4142 9.74982 18 9.74982C17.5858 9.74982 17.2501 10.0855 17.25 10.4996H16.25C15.9739 10.4996 15.75 10.7235 15.75 10.9996V11.4996C15.75 11.7758 15.9739 11.9996 16.25 11.9996H19.75C20.0261 11.9996 20.25 11.7758 20.25 11.4996V10.9996C20.25 10.7235 20.0261 10.4996 19.75 10.4996H18.75Z" fill="white"/>
</svg>
