<svg width="36" height="36" viewBox="0 0 36 36" fill="none" xmlns="http://www.w3.org/2000/svg">
<circle cx="18" cy="18" r="18" fill="#FA9312"/>
<path d="M13.4545 16H18.5455C19.4883 16 20 16.5117 20 17.4545V22.5455C20 23.4883 19.4883 24 18.5455 24H13.4545C12.5117 24 12 23.4883 12 22.5455V17.4545C12 16.5117 12.5117 16 13.4545 16Z" fill="#DADADA"/>
<path fill-rule="evenodd" clip-rule="evenodd" d="M16.7876 12.667H21.8785C22.8213 12.667 23.333 13.1787 23.333 14.1215V19.2124C23.333 20.1553 22.8213 20.667 21.8785 20.667H16.7876C15.8447 20.667 15.333 20.1553 15.333 19.2124V14.1215C15.333 13.1787 15.8447 12.667 16.7876 12.667Z" fill="white"/>
</svg>
