<svg width="36" height="36" viewBox="0 0 36 36" fill="none" xmlns="http://www.w3.org/2000/svg">
    <circle cx="18" cy="18" r="18" fill="#FA9312"/>
    <path fill-rule="evenodd" clip-rule="evenodd" d="M12.5 14.75H11.6136C10.0815 14.75 9.25 15.5815 9.25 17.1136V25.3864C9.25 26.9185 10.0815 27.75 11.6136 27.75H19.8864C21.4185 27.75 22.25 26.9185 22.25 25.3864V24.5H15.5C13.8431 24.5 12.5 23.1569 12.5 21.5V14.75Z" fill="white"/>
    <path fill-rule="evenodd" clip-rule="evenodd" d="M17.0304 9.33333H25.3031C26.8353 9.33333 27.6667 10.1648 27.6667 11.697V19.9697C27.6667 21.5019 26.8353 22.3333 25.3031 22.3333H17.0304C15.4982 22.3333 14.6667 21.5019 14.6667 19.9697V11.697C14.6667 10.1648 15.4982 9.33333 17.0304 9.33333Z" fill="white"/>
</svg>
