<svg width="36" height="36" viewBox="0 0 36 36" fill="none" xmlns="http://www.w3.org/2000/svg">
<circle cx="18" cy="18" r="18" fill="#F0565A"/>
<path d="M13.5 15.3335L14.3564 23.3266C14.4381 24.0888 15.0813 24.6668 15.8479 24.6668H20.1521C20.9187 24.6668 21.5619 24.0888 21.6436 23.3266L22.5 15.3335H13.5Z" fill="white"/>
<path fill-rule="evenodd" clip-rule="evenodd" d="M19.333 13C19.333 12.4477 18.8853 12 18.333 12H17.6663C17.1141 12 16.6663 12.4477 16.6663 13H13.833C13.5569 13 13.333 13.2239 13.333 13.5C13.333 13.7761 13.5569 14 13.833 14H22.1663C22.4425 14 22.6663 13.7761 22.6663 13.5C22.6663 13.2239 22.4425 13 22.1663 13H19.333Z" fill="white"/>
</svg>
